<?xml version="1.0" encoding="UTF-8" standalone="no"?>
<!-- Created with Inkscape (http://www.inkscape.org/) -->

<svg
   width="204mm"
   height="60.000065mm"
   viewBox="0 0 204 60.000065"
   version="1.1"
   id="svg5"
   inkscape:version="1.2 (dc2aedaf03, 2022-05-15)"
   sodipodi:docname="logo-dark-left.svg"
   xmlns:inkscape="http://www.inkscape.org/namespaces/inkscape"
   xmlns:sodipodi="http://sodipodi.sourceforge.net/DTD/sodipodi-0.dtd"
   xmlns="http://www.w3.org/2000/svg"
   xmlns:svg="http://www.w3.org/2000/svg">
  <sodipodi:namedview
     id="namedview7"
     pagecolor="#ffffff"
     bordercolor="#666666"
     borderopacity="1.0"
     inkscape:showpageshadow="2"
     inkscape:pageopacity="0.0"
     inkscape:pagecheckerboard="true"
     inkscape:deskcolor="#d1d1d1"
     inkscape:document-units="mm"
     showgrid="false"
     inkscape:zoom="1"
     inkscape:cx="560"
     inkscape:cy="146"
     inkscape:window-width="2560"
     inkscape:window-height="1416"
     inkscape:window-x="1920"
     inkscape:window-y="480"
     inkscape:window-maximized="1"
     inkscape:current-layer="layer1"
     showguides="false" />
  <defs
     id="defs2">
    <linearGradient
       id="linearGradient1174"
       inkscape:swatch="solid">
      <stop
         style="stop-color:#000000;stop-opacity:1;"
         offset="0"
         id="stop1172" />
    </linearGradient>
  </defs>
  <g
     inkscape:label="Layer 1"
     inkscape:groupmode="layer"
     id="layer1"
     transform="translate(-4.0000056,-4.1884951)">
    <g
       aria-label="Lucaci
Research"
       id="text3397"
       style="font-size:32.0988px;line-height:0.85;fill:#ffffff;stroke-width:1.09426">
      <path
         d="M 70.896117,32.583588 V 9.665044 h 4.846919 v 18.906194 h 9.308652 v 4.01235 z"
         style="font-weight:bold;-inkscape-font-specification:'sans-serif Bold'"
         id="path1909" />
      <path
         d="m 104.72827,15.057642 v 17.525946 h -3.65926 l -0.64198,-2.246916 h -0.25679 q -0.834568,1.348149 -2.311113,1.958026 -1.444446,0.609878 -3.081485,0.609878 -2.824695,0 -4.525931,-1.508644 -1.701236,-1.540742 -1.701236,-4.911116 V 15.057642 h 4.782721 V 25.29716 q 0,1.86173 0.674075,2.824694 0.674074,0.962964 2.150619,0.962964 2.182719,0 2.985189,-1.476544 0.80247,-1.508644 0.80247,-4.30124 v -8.249392 z"
         style="font-weight:bold;-inkscape-font-specification:'sans-serif Bold'"
         id="path1911" />
      <path
         d="m 116.8616,32.904576 q -3.91605,0 -6.06667,-2.15062 -2.11852,-2.182718 -2.11852,-6.837045 0,-3.20988 1.09136,-5.232104 1.09136,-2.022224 3.01729,-2.985189 1.95802,-0.962964 4.49383,-0.962964 1.79753,0 3.11358,0.353087 1.34815,0.353087 2.34321,0.834569 l -1.41234,3.691362 q -1.12346,-0.449383 -2.11852,-0.738272 -0.96297,-0.288889 -1.92593,-0.288889 -3.72346,0 -3.72346,5.296302 0,2.632101 0.96296,3.883955 0.99506,1.251853 2.7605,1.251853 1.50864,0 2.6642,-0.385186 1.15556,-0.417284 2.24692,-1.123458 v 4.076548 q -1.09136,0.706173 -2.31112,0.995063 -1.18765,0.320988 -3.01729,0.320988 z"
         style="font-weight:bold;-inkscape-font-specification:'sans-serif Bold'"
         id="path1913" />
      <path
         d="m 133.42458,14.704556 q 3.53087,0 5.3926,1.540742 1.89383,1.508644 1.89383,4.654326 v 11.683964 h -3.33828 l -0.93086,-2.375312 h -0.1284 q -1.12345,1.412348 -2.37531,2.054324 -1.25185,0.641976 -3.43457,0.641976 -2.34321,0 -3.88395,-1.34815 -1.54075,-1.380248 -1.54075,-4.204943 0,-2.792596 1.95803,-4.108646 1.95803,-1.34815 5.87408,-1.476545 l 3.04939,-0.0963 v -0.770371 q 0,-1.380248 -0.73828,-2.022224 -0.70617,-0.641976 -1.99012,-0.641976 -1.28395,0 -2.50371,0.385185 -1.21975,0.353087 -2.43951,0.898767 l -1.57284,-3.241979 q 1.41235,-0.738273 3.11359,-1.155557 1.73333,-0.417284 3.59506,-0.417284 z m 0.67408,9.822233 q -2.31112,0.0642 -3.20988,0.834568 -0.89877,0.770372 -0.89877,2.022225 0,1.091359 0.64198,1.572841 0.64197,0.449383 1.66913,0.449383 1.54075,0 2.60001,-0.898766 1.05926,-0.930865 1.05926,-2.600003 v -1.444446 z"
         style="font-weight:bold;-inkscape-font-specification:'sans-serif Bold'"
         id="path1915" />
      <path
         d="m 152.74806,32.904576 q -3.91605,0 -6.06667,-2.15062 -2.11852,-2.182718 -2.11852,-6.837045 0,-3.20988 1.09136,-5.232104 1.09136,-2.022224 3.01729,-2.985189 1.95802,-0.962964 4.49383,-0.962964 1.79753,0 3.11358,0.353087 1.34815,0.353087 2.34321,0.834569 l -1.41234,3.691362 q -1.12346,-0.449383 -2.11852,-0.738272 -0.96297,-0.288889 -1.92593,-0.288889 -3.72346,0 -3.72346,5.296302 0,2.632101 0.96296,3.883955 0.99506,1.251853 2.7605,1.251853 1.50864,0 2.6642,-0.385186 1.15556,-0.417284 2.24691,-1.123458 v 4.076548 q -1.09135,0.706173 -2.31111,0.995063 -1.18765,0.320988 -3.01729,0.320988 z"
         style="font-weight:bold;-inkscape-font-specification:'sans-serif Bold'"
         id="path1917" />
      <path
         d="m 164.52832,8.1884991 q 1.05926,0 1.82963,0.5135809 0.77037,0.481482 0.77037,1.829632 0,1.31605 -0.77037,1.829631 -0.77037,0.513581 -1.82963,0.513581 -1.09136,0 -1.86173,-0.513581 -0.73827,-0.513581 -0.73827,-1.829631 0,-1.34815 0.73827,-1.829632 0.77037,-0.5135809 1.86173,-0.5135809 z m 2.37531,6.8691429 v 17.525946 h -4.78272 V 15.057642 Z"
         style="font-weight:bold;-inkscape-font-specification:'sans-serif Bold'"
         id="path1919" />
      <path
         d="m 77.444272,36.949025 q 4.269141,0 6.291365,1.637039 2.054324,1.60494 2.054324,4.879018 0,1.829631 -0.674075,3.049386 -0.674075,1.219754 -1.733335,1.958027 -1.027162,0.706173 -2.182719,1.123458 l 6.291365,10.271616 H 84.120823 L 78.56773,50.398423 h -4.558029 v 9.469146 H 71.120809 V 36.949025 Z m -0.160494,2.503707 h -3.274077 v 8.506182 h 3.434571 q 2.792596,0 4.076548,-1.091359 1.283952,-1.123458 1.283952,-3.274078 0,-2.246916 -1.348149,-3.177781 -1.34815,-0.962964 -4.172845,-0.962964 z"
         id="path1921" />
      <path
         d="m 97.345521,42.341624 q 2.214818,0 3.787659,0.962964 1.60494,0.962964 2.43951,2.728398 0.86667,1.733335 0.86667,4.076548 V 51.81077 H 92.659096 q 0.0642,2.920991 1.476545,4.461733 1.444446,1.508644 4.01235,1.508644 1.637039,0 2.888889,-0.288889 1.28396,-0.320988 2.63211,-0.898767 v 2.471608 q -1.31606,0.577778 -2.60001,0.834569 -1.28395,0.288889 -3.049384,0.288889 -2.439509,0 -4.333338,-0.995063 -1.86173,-0.995063 -2.920991,-2.95309 -1.027161,-1.990125 -1.027161,-4.846918 0,-2.824695 0.930865,-4.846919 0.962964,-2.022225 2.6642,-3.113584 1.733335,-1.091359 4.01235,-1.091359 z m -0.0321,2.311113 q -2.022225,0 -3.209881,1.316051 -1.155556,1.283952 -1.380248,3.595066 h 8.762976 q -0.0321,-2.182718 -1.02717,-3.530868 -0.995058,-1.380249 -3.145677,-1.380249 z"
         id="path1923" />
      <path
         d="m 120.00725,55.116946 q 0,2.503707 -1.86173,3.787659 -1.86173,1.283952 -5.00741,1.283952 -1.79754,0 -3.11359,-0.288889 -1.28395,-0.288889 -2.27901,-0.80247 v -2.567904 q 1.02716,0.513581 2.47161,0.962964 1.47654,0.417284 2.98518,0.417284 2.15062,0 3.11359,-0.674075 0.96296,-0.706173 0.96296,-1.86173 0,-0.641976 -0.35309,-1.155557 -0.35308,-0.513581 -1.28395,-1.027162 -0.89876,-0.51358 -2.6,-1.155556 -1.66914,-0.641976 -2.85679,-1.283952 -1.18766,-0.641976 -1.82963,-1.540743 -0.64198,-0.898766 -0.64198,-2.311113 0,-2.182719 1.76543,-3.370375 1.79754,-1.187655 4.68643,-1.187655 1.57284,0 2.92099,0.320988 1.38025,0.288889 2.5679,0.834569 l -0.96296,2.246916 q -1.09136,-0.449384 -2.27902,-0.770372 -1.18765,-0.320988 -2.4395,-0.320988 -1.73334,0 -2.66421,0.577779 -0.89876,0.545679 -0.89876,1.508644 0,0.706173 0.41728,1.219754 0.41729,0.481482 1.38025,0.962964 0.99506,0.449383 2.6321,1.091359 1.63704,0.609877 2.7926,1.251853 1.15556,0.641976 1.76543,1.572842 0.60988,0.898766 0.60988,2.279014 z"
         id="path1925" />
      <path
         d="m 130.82455,42.341624 q 2.21482,0 3.78766,0.962964 1.60494,0.962964 2.43951,2.728398 0.86666,1.733335 0.86666,4.076548 v 1.701236 h -11.78026 q 0.0642,2.920991 1.47655,4.461733 1.44444,1.508644 4.01235,1.508644 1.63704,0 2.88889,-0.288889 1.28395,-0.320988 2.6321,-0.898767 v 2.471608 q -1.31605,0.577778 -2.6,0.834569 -1.28395,0.288889 -3.04939,0.288889 -2.43951,0 -4.33334,-0.995063 -1.86173,-0.995063 -2.92099,-2.95309 -1.02716,-1.990125 -1.02716,-4.846918 0,-2.824695 0.93087,-4.846919 0.96296,-2.022225 2.6642,-3.113584 1.73333,-1.091359 4.01235,-1.091359 z m -0.0321,2.311113 q -2.02223,0 -3.20988,1.316051 -1.15556,1.283952 -1.38025,3.595066 h 8.76297 q -0.0321,-2.182718 -1.02716,-3.530868 -0.99506,-1.380249 -3.14568,-1.380249 z"
         id="path1927" />
      <path
         d="m 148.79985,42.373723 q 3.14568,0 4.65433,1.380248 1.50864,1.380248 1.50864,4.397536 v 11.716062 h -2.05432 l -0.54568,-2.439509 h -0.1284 q -1.12345,1.412347 -2.37531,2.086422 -1.21975,0.674075 -3.40247,0.674075 -2.34321,0 -3.88396,-1.219754 -1.54074,-1.251854 -1.54074,-3.883955 0,-2.567904 2.02223,-3.948153 2.02222,-1.412347 6.22716,-1.540742 l 2.92099,-0.0963 v -1.027161 q 0,-2.15062 -0.93086,-2.985189 -0.93087,-0.834569 -2.6321,-0.834569 -1.34815,0 -2.56791,0.417285 -1.21975,0.385185 -2.27901,0.898766 l -0.86667,-2.118521 q 1.12346,-0.609877 2.6642,-1.027161 1.54074,-0.449383 3.20988,-0.449383 z m 0.83457,9.180257 q -3.20988,0.128395 -4.46173,1.027161 -1.21976,0.898767 -1.21976,2.535805 0,1.444447 0.86667,2.118521 0.89877,0.674075 2.27902,0.674075 2.18271,0 3.62716,-1.187655 1.44445,-1.219755 1.44445,-3.723461 v -1.540743 z"
         id="path1929" />
      <path
         d="m 168.31594,42.341624 q 0.48148,0 1.02716,0.0642 0.57778,0.0321 0.99507,0.128396 l -0.35309,2.600002 q -0.41729,-0.0963 -0.93087,-0.160494 -0.48148,-0.0642 -0.93086,-0.0642 -1.31605,0 -2.47161,0.738272 -1.15556,0.706174 -1.86173,2.022225 -0.67407,1.283952 -0.67407,3.017287 v 9.180257 h -2.8247 V 42.662612 h 2.31112 l 0.32098,3.145682 h 0.1284 q 0.83457,-1.412347 2.15062,-2.439509 1.31605,-1.027161 3.11358,-1.027161 z"
         id="path1931" />
      <path
         d="m 179.80731,60.188557 q -2.27902,0 -4.07655,-0.930865 -1.76544,-0.930865 -2.7926,-2.888892 -0.99506,-1.958027 -0.99506,-5.007413 0,-3.177781 1.05926,-5.167907 1.05926,-1.990126 2.85679,-2.920991 1.82964,-0.930865 4.14075,-0.930865 1.31605,0 2.5358,0.288889 1.21976,0.25679 1.99013,0.641976 l -0.86667,2.343212 q -0.77037,-0.288889 -1.79753,-0.545679 -1.02716,-0.256791 -1.92593,-0.256791 -5.07161,0 -5.07161,6.516057 0,3.113584 1.21976,4.782721 1.25185,1.637039 3.69136,1.637039 1.41234,0 2.4716,-0.288889 1.09136,-0.288889 1.99013,-0.706174 v 2.503707 q -0.86667,0.449383 -1.92593,0.674075 -1.02716,0.25679 -2.5037,0.25679 z"
         id="path1933" />
      <path
         d="m 191.13817,42.630513 q 0,1.283952 -0.1605,2.40741 h 0.1926 q 0.83457,-1.316051 2.24691,-1.990126 1.44445,-0.674074 3.11359,-0.674074 3.14568,0 4.71852,1.508643 1.57284,1.476545 1.57284,4.782722 v 11.202481 h -2.79259 V 48.85768 q 0,-4.140745 -3.85186,-4.140745 -2.88889,0 -3.98025,1.637039 -1.05926,1.60494 -1.05926,4.622227 v 8.891368 h -2.8247 V 35.47248 h 2.8247 z"
         id="path1935" />
    </g>
  </g>
  <g
     inkscape:groupmode="layer"
     id="layer2"
     inkscape:label="Layer 2">
    <rect
       style="fill:#ffffff;stroke-width:1.53862"
       id="rect434-8"
       width="1.1794307"
       height="36.746063"
       x="31.608419"
       y="8.9762011"
       inkscape:label="bar" />
    <path
       sodipodi:type="star"
       style="fill:#ffffff;fill-opacity:0;stroke:#ffffff;stroke-width:0.264583;stroke-opacity:1;fill-rule:nonzero"
       id="path488-8"
       inkscape:flatsided="true"
       sodipodi:sides="6"
       sodipodi:cx="88.976707"
       sodipodi:cy="18.758171"
       sodipodi:r1="4.4786382"
       sodipodi:r2="3.8786147"
       sodipodi:arg1="1.043943"
       sodipodi:arg2="1.5675417"
       inkscape:rounded="0"
       inkscape:randomized="0"
       d="m 91.228638,22.629477 -4.478615,0.01458 -2.25193,-3.871306 2.226684,-3.885882 4.478615,-0.01458 2.25193,3.871306 z"
       inkscape:transform-center-x="1.4741393e-05"
       transform="matrix(6.4702026,0,0,6.4702026,-541.73144,-91.369168)"
       inkscape:transform-center-y="-2.7127947e-06"
       inkscape:label="hex" />
    <rect
       style="fill:#ffffff;fill-opacity:1;fill-rule:nonzero;stroke:none;stroke-width:0.264583;stroke-opacity:1"
       id="rect4417"
       width="13.903466"
       height="5.2804699"
       x="18.809639"
       y="42.277206"
       transform="translate(-4.0000055,-4.1884952)"
       inkscape:label="logo_l" />
    <path
       style="fill:#ffffff;fill-opacity:1;stroke:none;stroke-width:0.264583px;stroke-linecap:butt;stroke-linejoin:miter;stroke-opacity:1"
       d="m 39.366245,14.791993 4.804778,0.0019 c 0,0 10.3462,-0.07248 10.634017,9.041755 0.261448,8.279197 -6.138556,9.775037 -6.138556,9.775037 l 6.622019,13.973609 -6.292461,-0.008 -5.911787,-13.1118 -3.722603,4.3e-5 0.0033,-4.601975 4.7341,2.65e-4 c 0,0 0.450114,-0.08606 0.96925,-0.158823 2.220122,-0.311158 3.957101,-1.925516 3.966795,-4.691017 0.01098,-3.131043 -1.442074,-4.330997 -3.070208,-5.032905 -0.792043,-0.341459 -1.870801,-0.362188 -1.870801,-0.362188 l -4.724289,-0.0022 z"
       id="path4996"
       sodipodi:nodetypes="ccscccccccsssccc"
       transform="translate(-4.0000055,-4.1884952)" />
  </g>
</svg>
